# xmcd
#
# Track frame offsets:
#	150
#	13425
#	26126
#	38719
#	50979
#	62154
#	76682
#	91900
#	106650
#	119134
#	133638
#	148065
#	161143
#	173424
#	185275
#	196669
#	209586
#	220319
#	232470
#	246063
#
# Disc length: 3445 seconds
#
# Revision: 1
# Processed by: cddbd v1.5.2PL0 Copyright (c) Steve Scherf et al.
# Submitted via: audiograbber 1.83.01
#
DISCID=280d7314
DTITLE=Various Artist - Battle of Clarinets CD2
DYEAR=2005
DGENRE=Blues
TTITLE0=Jimmy Dorsey - Shim-Me-Sha-Wabble
TTITLE1=Buster Bailey - Shanghai Shuffle
TTITLE2=Benny Goodman - After you´re gone
TTITLE3=Buster Bailey - Dizzy Debutante
TTITLE4=Artie Shaw - The Japanes Sandman
TTITLE5=Benny Goodman - Who?
TTITLE6=Artie Shaw - Sugar Foot Stomp
TTITLE7=Jimmie Noone - Virginia Lee
TTITLE8=Sidney Bechet - Black Stick Blues
TTITLE9=Mezz Mezzrow - Blues in Disguise
TTITLE10=Johnny Dodds - Wild man Blues
TTITLE11=Jimmie Noone - Trav´lin` All Alone
TTITLE12=Artie Shaw - The Skeleton In The Closet
TTITLE13=Benny Goodman - Runnin`Wild
TTITLE14=Buster Bailey - Royal Garden Blues
TTITLE15=Benny Goodman - Boy Meets Goy
TTITLE16=Sidney Bechet - Chant In The Night
TTITLE17=Johnny Dodds - Melancholy
TTITLE18=Sidney Bechet - Perdido Street Blues
TTITLE19=Benny Goodman - Avalon
EXTD=
EXTT0=
EXTT1=
EXTT2=
EXTT3=
EXTT4=
EXTT5=
EXTT6=
EXTT7=
EXTT8=
EXTT9=
EXTT10=
EXTT11=
EXTT12=
EXTT13=
EXTT14=
EXTT15=
EXTT16=
EXTT17=
EXTT18=
EXTT19=
PLAYORDER=
